<svg width="38" height="31" viewBox="0 0 38 31" fill="none" xmlns="http://www.w3.org/2000/svg">
<path d="M35.7176 15.5001H25.6088L22.2392 20.5545H15.5001L12.1305 15.5001H2.02175M35.7176 15.5001V25.6088C35.7176 26.5025 35.3626 27.3596 34.7307 27.9915C34.0987 28.6234 33.2417 28.9784 32.348 28.9784H5.39133C4.49766 28.9784 3.6406 28.6234 3.00868 27.9915C2.37676 27.3596 2.02175 26.5025 2.02175 25.6088V15.5001M35.7176 15.5001L29.905 3.89187C29.6261 3.33047 29.196 2.85803 28.6633 2.52766C28.1305 2.19729 27.5162 2.02208 26.8893 2.02175H10.8501C10.2232 2.02208 9.60881 2.19729 9.07605 2.52766C8.54328 2.85803 8.11324 3.33047 7.83428 3.89187L2.02175 15.5001" stroke="#1E1E1E" stroke-width="2" stroke-linecap="round" stroke-linejoin="round"/>
</svg>
