<svg width="38" height="31" viewBox="0 0 38 31" fill="none" xmlns="http://www.w3.org/2000/svg">
<path d="M35.7173 15.5H25.6086L22.2391 20.5543H15.5L12.1304 15.5H2.02173M35.7173 15.5V25.6086C35.7173 26.5023 35.3623 27.3593 34.7304 27.9913C34.0985 28.6232 33.2414 28.9782 32.3477 28.9782H5.39129C4.49763 28.9782 3.64057 28.6232 3.00865 27.9913C2.37674 27.3593 2.02173 26.5023 2.02173 25.6086V15.5M35.7173 15.5L29.9048 3.89184C29.6258 3.33045 29.1958 2.85801 28.6631 2.52764C28.1303 2.19727 27.5159 2.02207 26.8891 2.02173H10.85C10.2231 2.02207 9.60873 2.19727 9.07597 2.52764C8.54322 2.85801 8.11318 3.33045 7.83422 3.89184L2.02173 15.5" stroke="#1E1E1E" stroke-width="2" stroke-linecap="round" stroke-linejoin="round"/>
</svg>
