<svg width="38" height="31" viewBox="0 0 38 31" fill="none" xmlns="http://www.w3.org/2000/svg">
<path d="M35.7174 15.5H25.6087L22.2391 20.5543H15.5L12.1304 15.5H2.02174M35.7174 15.5V25.6087C35.7174 26.5023 35.3624 27.3594 34.7304 27.9913C34.0985 28.6232 33.2415 28.9782 32.3478 28.9782H5.3913C4.49764 28.9782 3.64058 28.6232 3.00866 27.9913C2.37674 27.3594 2.02174 26.5023 2.02174 25.6087V15.5M35.7174 15.5L29.9049 3.89185C29.6259 3.33045 29.1959 2.85801 28.6631 2.52764C28.1304 2.19727 27.516 2.02207 26.8891 2.02174H10.85C10.2231 2.02207 9.60875 2.19727 9.07599 2.52764C8.54323 2.85801 8.1132 3.33045 7.83423 3.89185L2.02174 15.5" stroke="#1E1E1E" stroke-width="2" stroke-linecap="round" stroke-linejoin="round"/>
</svg>
