<svg width="38" height="38" viewBox="0 0 38 38" fill="none" xmlns="http://www.w3.org/2000/svg">
<path d="M34.6242 25.5987C33.545 28.1509 31.857 30.3998 29.7078 32.149C27.5586 33.8981 25.0137 35.0941 22.2955 35.6325C19.5773 36.1709 16.7686 36.0351 14.115 35.2373C11.4613 34.4394 9.04355 33.0036 7.073 31.0554C5.10246 29.1072 3.63914 26.706 2.811 24.0616C1.98285 21.4173 1.81509 18.6103 2.32237 15.8862C2.82966 13.162 3.99654 10.6036 5.72102 8.43455C7.44549 6.26553 9.67505 4.55198 12.2148 3.44369M35.9643 18.9997C35.9643 16.7719 35.5256 14.566 34.673 12.5078C33.8205 10.4497 32.571 8.57957 30.9957 7.00432C29.4205 5.42906 27.5504 4.17951 25.4922 3.32699C23.434 2.47447 21.2281 2.03568 19.0004 2.03568V18.9997H35.9643Z" stroke="#1E1E1E" stroke-width="2" stroke-linecap="round" stroke-linejoin="round"/>
</svg>
