<svg width="34" height="38" viewBox="0 0 34 38" fill="none" xmlns="http://www.w3.org/2000/svg">
<path d="M2.45 10.2632L17 18.6799L31.55 10.2632M17 35.4632V18.6632M32 25.3299V11.9966C31.9994 11.412 31.8451 10.8379 31.5526 10.3319C31.26 9.82577 30.8396 9.40552 30.3333 9.11325L18.6667 2.44658C18.1599 2.15402 17.5851 2 17 2C16.4149 2 15.8401 2.15402 15.3333 2.44658L3.66667 9.11325C3.16044 9.40552 2.73997 9.82577 2.44744 10.3319C2.1549 10.8379 2.0006 11.412 2 11.9966V25.3299C2.0006 25.9145 2.1549 26.4886 2.44744 26.9946C2.73997 27.5007 3.16044 27.921 3.66667 28.2132L15.3333 34.8799C15.8401 35.1725 16.4149 35.3265 17 35.3265C17.5851 35.3265 18.1599 35.1725 18.6667 34.8799L30.3333 28.2132C30.8396 27.921 31.26 27.5007 31.5526 26.9946C31.8451 26.4886 31.9994 25.9145 32 25.3299Z" stroke="#1E1E1E" stroke-width="2" stroke-linecap="round" stroke-linejoin="round"/>
</svg>
