<svg width="41" height="34" viewBox="0 0 41 34" fill="none" xmlns="http://www.w3.org/2000/svg">
<path d="M28.6667 32V28.6667C28.6667 26.8986 27.9643 25.2029 26.714 23.9526C25.4638 22.7024 23.7681 22 22 22H8.66667C6.89856 22 5.20286 22.7024 3.95262 23.9526C2.70238 25.2029 2 26.8986 2 28.6667V32M38.6667 32V28.6667C38.6656 27.1895 38.1739 25.7546 37.2689 24.5872C36.364 23.4198 35.0969 22.5859 33.6667 22.2167M27 2.21667C28.434 2.58384 29.7051 3.41783 30.6127 4.58718C31.5204 5.75653 32.0131 7.19472 32.0131 8.675C32.0131 10.1553 31.5204 11.5935 30.6127 12.7628C29.7051 13.9322 28.434 14.7662 27 15.1333M22 8.66667C22 12.3486 19.0152 15.3333 15.3333 15.3333C11.6514 15.3333 8.66667 12.3486 8.66667 8.66667C8.66667 4.98477 11.6514 2 15.3333 2C19.0152 2 22 4.98477 22 8.66667Z" stroke="#1E1E1E" stroke-width="2" stroke-linecap="round" stroke-linejoin="round"/>
</svg>
