<svg width="38" height="31" viewBox="0 0 38 31" fill="none" xmlns="http://www.w3.org/2000/svg">
<path d="M35.7174 15.5H25.6087L22.2392 20.5544H15.5L12.1305 15.5H2.02174M35.7174 15.5V25.6087C35.7174 26.5024 35.3624 27.3595 34.7305 27.9914C34.0986 28.6233 33.2415 28.9783 32.3479 28.9783H5.39131C4.49765 28.9783 3.64058 28.6233 3.00867 27.9914C2.37675 27.3595 2.02174 26.5024 2.02174 25.6087V15.5M35.7174 15.5L29.9049 3.89185C29.626 3.33046 29.1959 2.85802 28.6632 2.52765C28.1304 2.19728 27.516 2.02207 26.8892 2.02174H10.85C10.2231 2.02207 9.60877 2.19728 9.07601 2.52765C8.54325 2.85802 8.11321 3.33046 7.83425 3.89185L2.02174 15.5" stroke="#1E1E1E" stroke-width="2" stroke-linecap="round" stroke-linejoin="round"/>
</svg>
