<svg width="38" height="34" viewBox="0 0 38 34" fill="none" xmlns="http://www.w3.org/2000/svg">
<path d="M25.3333 32V5.33333C25.3333 4.44928 24.9821 3.60143 24.357 2.97631C23.7319 2.35119 22.8841 2 22 2H15.3333C14.4493 2 13.6014 2.35119 12.9763 2.97631C12.3512 3.60143 12 4.44928 12 5.33333V32M5.33333 8.66667H32C33.8409 8.66667 35.3333 10.1591 35.3333 12V28.6667C35.3333 30.5076 33.8409 32 32 32H5.33333C3.49238 32 2 30.5076 2 28.6667V12C2 10.1591 3.49238 8.66667 5.33333 8.66667Z" stroke="#1E1E1E" stroke-width="2" stroke-linecap="round" stroke-linejoin="round"/>
</svg>
