<svg width="63" height="48" viewBox="0 0 63 48" fill="none" xmlns="http://www.w3.org/2000/svg">
<path d="M36.5072 48C34.3917 48 32.1755 47.6977 29.9593 47.0933C18.5759 43.5675 4.27105 37.6239 0.644482 28.759C-0.564374 25.9383 -0.0606839 22.211 2.05482 18.4837C5.78212 11.7342 15.6545 2.97002 31.2689 0.451572C42.2493 -1.26098 52.3231 1.96264 58.0652 9.01431C62.6991 14.7564 63.8073 21.9088 61.0873 28.759C56.4534 40.8475 47.0847 48 36.5072 48ZM37.1117 1.96264C35.2984 1.96264 33.4851 2.06338 31.5711 2.3656C16.7626 4.78331 7.39393 13.0438 3.8681 19.3903C2.05482 22.7147 1.55113 25.7368 2.55851 27.9531C5.07696 34.2996 15.05 40.4446 30.6644 45.0785C42.6523 48.4029 54.1364 41.452 59.274 27.9531C61.6918 21.8081 60.6844 15.3608 56.5541 10.2232C52.1216 4.88405 45.1707 1.96264 37.1117 1.96264Z" fill="#603913"/>
</svg>
