<svg width="63" height="48" viewBox="0 0 63 48" fill="none" xmlns="http://www.w3.org/2000/svg">
<path d="M36.5073 48C34.3918 48 32.1755 47.6978 29.9593 47.0934C18.5759 43.5675 4.27106 37.624 0.644483 28.759C-0.564375 25.9383 -0.060684 22.211 2.05482 18.4837C5.78213 11.7343 15.6545 2.97003 31.2689 0.451573C42.2494 -1.26098 52.3232 1.96265 58.0653 9.01432C62.6992 14.7564 63.8073 21.9088 61.0874 28.759C56.4534 40.8476 47.0848 48 36.5073 48ZM37.1117 1.96265C35.2984 1.96265 33.4851 2.06338 31.5711 2.3656C16.7626 4.78332 7.39394 13.0439 3.86811 19.3904C2.05482 22.7147 1.55113 25.7369 2.55851 27.9531C5.07696 34.2996 15.05 40.4446 30.6645 45.0786C42.6523 48.403 54.1365 41.452 59.2741 27.9531C61.6918 21.8081 60.6845 15.3608 56.5542 10.2232C52.1217 4.88405 45.1708 1.96265 37.1117 1.96265Z" fill="#603913"/>
</svg>
