<svg width="63" height="48" viewBox="0 0 63 48" fill="none" xmlns="http://www.w3.org/2000/svg">
<path d="M36.5073 48.0001C34.3918 48.0001 32.1756 47.6979 29.9593 47.0934C18.5759 43.5676 4.27106 37.624 0.644484 28.7591C-0.564376 25.9384 -0.0606841 22.2111 2.05482 18.4837C5.78214 11.7343 15.6545 2.97003 31.2689 0.451573C42.2494 -1.26098 52.3232 1.96265 58.0653 9.01433C62.6993 14.7564 63.8074 21.9088 61.0875 28.7591C56.4535 40.8477 47.0849 48.0001 36.5073 48.0001ZM37.1118 1.96265C35.2985 1.96265 33.4852 2.06339 31.5712 2.3656C16.7626 4.78332 7.39395 13.0439 3.86811 19.3904C2.05482 22.7148 1.55113 25.7369 2.55851 27.9531C5.07697 34.2997 15.0501 40.4447 30.6645 45.0787C42.6524 48.403 54.1365 41.4521 59.2742 27.9531C61.6919 21.8081 60.6845 15.3608 56.5543 10.2232C52.1218 4.88406 45.1708 1.96265 37.1118 1.96265Z" fill="#603913"/>
</svg>
