<svg width="63" height="48" viewBox="0 0 63 48" fill="none" xmlns="http://www.w3.org/2000/svg">
<path d="M36.5071 47.9998C34.3917 47.9998 32.1754 47.6976 29.9592 47.0932C18.5758 43.5674 4.27104 37.6238 0.644481 28.7589C-0.564373 25.9382 -0.0606838 22.2109 2.05481 18.4836C5.78211 11.7342 15.6544 2.97002 31.2688 0.451571C42.2492 -1.26097 52.323 1.96264 58.065 9.01429C62.699 14.7563 63.8071 21.9087 61.0872 28.7589C56.4532 40.8474 47.0846 47.9998 36.5071 47.9998ZM37.1116 1.96264C35.2983 1.96264 33.485 2.06338 31.571 2.36559C16.7625 4.7833 7.39391 13.0438 3.86809 19.3903C2.05481 22.7146 1.55112 25.7368 2.5585 27.953C5.07694 34.2995 15.05 40.4445 30.6644 45.0784C42.6521 48.4028 54.1363 41.4519 59.2739 27.953C61.6916 21.808 60.6842 15.3608 56.554 10.2231C52.1215 4.88404 45.1706 1.96264 37.1116 1.96264Z" fill="#603913"/>
</svg>
